<svg xmlns="http://www.w3.org/2000/svg" width="24" height="24" fill="#0A2D67" className="w-4 fill-action-sec" > <path fillRule="evenodd" d="M8.416 4.376a.75.75 0 0 0-1.07.256l-4.5 8a.75.75 0 0 0-.08.213 4.75 4.75 0 1 0 8.977 1.905h.514a4.75 4.75 0 1 0 8.977-1.905.75.75 0 0 0-.08-.213l-4.5-8a.75.75 0 0 0-1.07-.256l-1.5 1a.75.75 0 1 0 .832 1.248l.827-.551 2.432 4.323A4.76 4.76 0 0 0 17 10.25H7c-.406 0-.8.05-1.175.146l2.432-4.323.827.551a.75.75 0 1 0 .832-1.248l-1.5-1zm2.048 7.374h3.072c-.406.432-.731.94-.953 1.5h-1.166a4.752 4.752 0 0 0-.953-1.5zm6.536 0a3.25 3.25 0 1 0 0 6.5 3.25 3.25 0 0 0 0-6.5zm-10 0a3.25 3.25 0 1 0 0 6.5 3.25 3.25 0 0 0 0-6.5z" clipRule="evenodd" ></path> </svg>