<svg xmlns="http://www.w3.org/2000/svg" fill="none" height="20" viewBox="0 0 20 20" width="20"><g fill="#20294c"><path clip-rule="evenodd" d="m8.63962 1c-1.43005 0-2.66129 1.00938-2.94174 2.41165l-.11767.58835h-2.58021c-1.10457 0-2 .89543-2 2v3c0 1.1046.89543 2 2 2h1c0-1.10457.89543-2 2-2s2 .89543 2 2h4c0-1.10457.8954-2 2-2s2 .89543 2 2h1c1.1046 0 2-.8954 2-2v-3c0-1.10457-.8954-2-2-2h-2.5802l-.1177-.58835c-.2804-1.40227-1.5117-2.41165-2.9417-2.41165zm3.74058 3-.0392-.19612c-.0935-.46742-.5039-.80388-.9806-.80388h-2.72078c-.47668 0-.8871.33646-.98058.80388l-.03923.19612z" fill-rule="evenodd"/><path d="m14 14c-1.1046 0-2-.8954-2-2h-4c0 1.1046-.89543 2-2 2s-2-.8954-2-2h-1c-.35064 0-.68722-.0602-1-.1707v5.1707c0 1.1046.89543 2 2 2h12c1.1046 0 2-.8954 2-2v-5.1707c-.3128.1105-.6494.1707-1 .1707h-1c0 1.1046-.8954 2-2 2z"/><path d="m5 11c0-.5523.44772-1 1-1s1 .4477 1 1v1c0 .5523-.44772 1-1 1s-1-.4477-1-1z"/><path d="m13 11c0-.5523.4477-1 1-1s1 .4477 1 1v1c0 .5523-.4477 1-1 1s-1-.4477-1-1z"/></g></svg>