<svg
                xmlns="http://www.w3.org/2000/svg"
                width="16"
                height="16"
                fill="none"
                class="fill-soft"
                aria-hidden="true"
              >
                <path
                  fill="#676B89"
                  fill-rule="evenodd"
                  d="M6.484 1.427a.75.75 0 0 1 .24.77C6.03 4.74 6.63 6.82 7.863 8.052c1.223 1.223 3.196 1.738 5.543.9a.75.75 0 0 1 .96.957A6.752 6.752 0 0 1 1.25 7.659c0-2.974 1.739-5.09 4.435-6.34a.75.75 0 0 1 .8.108zM4.971 3.455C3.525 4.492 2.75 5.893 2.75 7.659a5.25 5.25 0 0 0 9.466 3.129c-2.145.302-4.069-.33-5.414-1.675C5.439 7.75 4.754 5.74 4.972 3.455z"
                  clip-rule="evenodd"
                ></path>
              </svg>