<svg
              xmlns="http://www.w3.org/2000/svg"
              width="24"
              height="24"
              fill="#0A2D67"
              className="fill"
            >
              <path
                fill-rule="evenodd"
                d="M4.065 9.274a.75.75 0 0 1 .913.54 7.219 7.219 0 0 0 1.217 2.53A7.24 7.24 0 0 0 12 15.25a7.24 7.24 0 0 0 5.83-2.94 7.218 7.218 0 0 0 1.192-2.497.75.75 0 0 1 1.452.374 8.707 8.707 0 0 1-1.132 2.575l1.122 1.521a.75.75 0 1 1-1.207.89l-.876-1.186a8.79 8.79 0 0 1-1.923 1.544l.866 2.035a.75.75 0 0 1-1.38.587l-.839-1.97a8.7 8.7 0 0 1-2.355.535V19a.75.75 0 0 1-1.5 0v-2.282a8.7 8.7 0 0 1-2.355-.535l-.839 1.97a.75.75 0 1 1-1.38-.587l.866-2.035a8.788 8.788 0 0 1-1.923-1.544l-.876 1.187a.75.75 0 1 1-1.207-.89l1.122-1.522a8.706 8.706 0 0 1-1.132-2.575.75.75 0 0 1 .54-.913z"
                clip-rule="evenodd"
              ></path>
            </svg>