<svg width="77" height="77" fill="none" xmlns="http://www.w3.org/2000/svg"><g clip-path="url(#prefix__clip0_250_10407)"><rect x="5.207" y="5.124" width="66.648" height="66.648" rx="16.662" fill="#3B9DFB"/><g filter="url(#prefix__filter0_i_250_10407)"><rect x="5.207" y="5.124" width="66.648" height="66.648" rx="16.662" fill="#3B9DFB"/></g><g opacity=".4" fill="#EDEEF3"><circle cx="15.207" cy="9.124" r="1"/><circle cx="37.207" cy="9.124" r="1"/><circle cx="59.207" cy="9.124" r="1"/><circle cx="15.207" cy="23.124" r="1"/><circle cx="37.207" cy="23.124" r="1"/><circle cx="59.207" cy="23.124" r="1"/><circle cx="15.207" cy="37.124" r="1"/><circle cx="37.207" cy="37.124" r="1"/><circle cx="59.207" cy="37.124" r="1"/><circle cx="15.207" cy="51.124" r="1"/><circle cx="37.207" cy="51.124" r="1"/><circle cx="59.207" cy="51.124" r="1"/><circle cx="15.207" cy="65.124" r="1"/><circle cx="37.207" cy="65.124" r="1"/><circle cx="59.207" cy="65.124" r="1"/></g><g filter="url(#prefix__filter1_ddi_250_10407)"><path fill-rule="evenodd" clip-rule="evenodd" d="M61.007 16.131c-3.538 3.306-5.66 9.79-6.516 22.635-.812 12.189-6.155 20.306-13.856 22.95-7.651 2.627-15.892-.788-20.84-7.985-2.284-3.322-4.563-4.525-6.4-4.816-1.885-.297-4.013.256-6.157 1.797-4.42 3.179-7.781 9.806-7.165 16.379l-7.965.747c-.884-9.427 3.755-18.8 10.46-23.62 3.419-2.46 7.634-3.906 12.076-3.204 4.492.71 8.526 3.506 11.743 8.184 3.326 4.838 8.04 6.191 11.65 4.952 3.56-1.222 7.785-5.605 8.472-15.916.852-12.775 2.98-22.29 9.037-27.949 6.208-5.799 15.353-6.508 26.98-5.237l-.87 7.953c-11.465-1.254-17.26-.034-20.649 3.13z" fill="#9AE97F"/></g></g><rect x="3.124" y="3.041" width="70.814" height="70.814" rx="18.745" stroke="#C7CBDB" stroke-opacity=".4" stroke-width="4.166"/><defs><filter id="prefix__filter0_i_250_10407" x="5.207" y="5.124" width="66.648" height="66.648" filterUnits="userSpaceOnUse" color-interpolation-filters="sRGB"><feFlood flood-opacity="0" result="BackgroundImageFix"/><feBlend in="SourceGraphic" in2="BackgroundImageFix" result="shape"/><feColorMatrix in="SourceAlpha" values="0 0 0 0 0 0 0 0 0 0 0 0 0 0 0 0 0 0 127 0" result="hardAlpha"/><feOffset/><feGaussianBlur stdDeviation="5.207"/><feComposite in2="hardAlpha" operator="arithmetic" k2="-1" k3="1"/><feColorMatrix values="0 0 0 0 0.222656 0 0 0 0 0.587524 0 0 0 0 0.9375 0 0 0 1 0"/><feBlend in2="shape" result="effect1_innerShadow_250_10407"/></filter><filter id="prefix__filter1_ddi_250_10407" x="-12.165" y="2.43" width="98.856" height="73.739" filterUnits="userSpaceOnUse" color-interpolation-filters="sRGB"><feFlood flood-opacity="0" result="BackgroundImageFix"/><feColorMatrix in="SourceAlpha" values="0 0 0 0 0 0 0 0 0 0 0 0 0 0 0 0 0 0 127 0" result="hardAlpha"/><feOffset dy="1.041"/><feGaussianBlur stdDeviation="1.562"/><feColorMatrix values="0 0 0 0 0.12549 0 0 0 0 0.160784 0 0 0 0 0.298039 0 0 0 0.12 0"/><feBlend in2="BackgroundImageFix" result="effect1_dropShadow_250_10407"/><feColorMatrix in="SourceAlpha" values="0 0 0 0 0 0 0 0 0 0 0 0 0 0 0 0 0 0 127 0" result="hardAlpha"/><feOffset dy="4.166"/><feGaussianBlur stdDeviation="2.083"/><feComposite in2="hardAlpha" operator="out"/><feColorMatrix values="0 0 0 0 0 0 0 0 0 0 0 0 0 0 0 0 0 0 0.25 0"/><feBlend in2="effect1_dropShadow_250_10407" result="effect2_dropShadow_250_10407"/><feBlend in="SourceGraphic" in2="effect2_dropShadow_250_10407" result="shape"/><feColorMatrix in="SourceAlpha" values="0 0 0 0 0 0 0 0 0 0 0 0 0 0 0 0 0 0 127 0" result="hardAlpha"/><feOffset dy="1.041"/><feComposite in2="hardAlpha" operator="arithmetic" k2="-1" k3="1"/><feColorMatrix values="0 0 0 0 1 0 0 0 0 1 0 0 0 0 1 0 0 0 0.2 0"/><feBlend in2="shape" result="effect3_innerShadow_250_10407"/></filter><clipPath id="prefix__clip0_250_10407"><rect x="5.207" y="5.124" width="66.648" height="66.648" rx="16.662" fill="#fff"/></clipPath></defs></svg>