<svg width="77" height="76" fill="none" xmlns="http://www.w3.org/2000/svg"><g clip-path="url(#prefix__clip0_469_19391)"><rect x="5.457" y="5.124" width="66.648" height="66.648" rx="16.662" fill="#3B9DFB"/><g filter="url(#prefix__filter0_i_469_19391)"><rect x="5.457" y="5.124" width="66.648" height="66.648" rx="16.662" fill="#3B9DFB"/></g><g opacity=".4" fill="#EDEEF3"><circle cx="15.457" cy="9.124" r="1"/><circle cx="37.457" cy="9.124" r="1"/><circle cx="59.457" cy="9.124" r="1"/><circle cx="15.457" cy="23.124" r="1"/><circle cx="37.457" cy="23.124" r="1"/><circle cx="59.457" cy="23.124" r="1"/><circle cx="15.457" cy="37.124" r="1"/><circle cx="37.457" cy="37.124" r="1"/><circle cx="59.457" cy="37.124" r="1"/><circle cx="15.457" cy="51.124" r="1"/><circle cx="37.457" cy="51.124" r="1"/><circle cx="59.457" cy="51.124" r="1"/><circle cx="15.457" cy="65.124" r="1"/><circle cx="37.457" cy="65.124" r="1"/><circle cx="59.457" cy="65.124" r="1"/></g><circle opacity=".3" cx="37.74" cy="37.407" r="20.828" fill="#fff"/><g filter="url(#prefix__filter1_ddi_469_19391)"><path fill-rule="evenodd" clip-rule="evenodd" d="M81.345 74.27l-.012-.012L59.461 53.59a25.893 25.893 0 004.931-15.244c0-14.318-11.557-25.932-25.823-25.932S12.747 24.028 12.747 38.346c0 14.317 11.556 25.932 25.822 25.932 5.691 0 10.954-1.85 15.222-4.983l21.884 20.68a4.006 4.006 0 005.67-.012 4.038 4.038 0 000-5.694zM20.777 38.345c0-9.877 7.97-17.876 17.792-17.876 9.822 0 17.793 7.999 17.793 17.876 0 9.876-7.97 17.875-17.793 17.875-9.822 0-17.792-7.999-17.792-17.875z" fill="#9AE97F"/></g></g><rect x="3.374" y="3.041" width="70.814" height="70.814" rx="18.745" stroke="#C7CBDB" stroke-opacity=".4" stroke-width="4.166"/><defs><filter id="prefix__filter0_i_469_19391" x="5.457" y="5.124" width="66.648" height="66.648" filterUnits="userSpaceOnUse" color-interpolation-filters="sRGB"><feFlood flood-opacity="0" result="BackgroundImageFix"/><feBlend in="SourceGraphic" in2="BackgroundImageFix" result="shape"/><feColorMatrix in="SourceAlpha" values="0 0 0 0 0 0 0 0 0 0 0 0 0 0 0 0 0 0 127 0" result="hardAlpha"/><feOffset/><feGaussianBlur stdDeviation="5.207"/><feComposite in2="hardAlpha" operator="arithmetic" k2="-1" k3="1"/><feColorMatrix values="0 0 0 0 0.222656 0 0 0 0 0.587524 0 0 0 0 0.9375 0 0 0 1 0"/><feBlend in2="shape" result="effect1_innerShadow_469_19391"/></filter><filter id="prefix__filter1_ddi_469_19391" x="8.581" y="10.331" width="78.103" height="79.145" filterUnits="userSpaceOnUse" color-interpolation-filters="sRGB"><feFlood flood-opacity="0" result="BackgroundImageFix"/><feColorMatrix in="SourceAlpha" values="0 0 0 0 0 0 0 0 0 0 0 0 0 0 0 0 0 0 127 0" result="hardAlpha"/><feOffset dy="1.041"/><feGaussianBlur stdDeviation="1.562"/><feColorMatrix values="0 0 0 0 0.12549 0 0 0 0 0.160784 0 0 0 0 0.298039 0 0 0 0.12 0"/><feBlend in2="BackgroundImageFix" result="effect1_dropShadow_469_19391"/><feColorMatrix in="SourceAlpha" values="0 0 0 0 0 0 0 0 0 0 0 0 0 0 0 0 0 0 127 0" result="hardAlpha"/><feOffset dy="4.166"/><feGaussianBlur stdDeviation="2.083"/><feComposite in2="hardAlpha" operator="out"/><feColorMatrix values="0 0 0 0 0 0 0 0 0 0 0 0 0 0 0 0 0 0 0.25 0"/><feBlend in2="effect1_dropShadow_469_19391" result="effect2_dropShadow_469_19391"/><feBlend in="SourceGraphic" in2="effect2_dropShadow_469_19391" result="shape"/><feColorMatrix in="SourceAlpha" values="0 0 0 0 0 0 0 0 0 0 0 0 0 0 0 0 0 0 127 0" result="hardAlpha"/><feOffset dy="1.041"/><feComposite in2="hardAlpha" operator="arithmetic" k2="-1" k3="1"/><feColorMatrix values="0 0 0 0 1 0 0 0 0 1 0 0 0 0 1 0 0 0 0.2 0"/><feBlend in2="shape" result="effect3_innerShadow_469_19391"/></filter><clipPath id="prefix__clip0_469_19391"><rect x="5.457" y="5.124" width="66.648" height="66.648" rx="16.662" fill="#fff"/></clipPath></defs></svg>