<svg xmlns="http://www.w3.org/2000/svg" fill="#0A2D67" viewBox="0 0 24 24" className="w-4 fill-action-sec" > <path d="M14.902 5.034c.606-.71 1.033-1.68 1.033-2.66 0-.134-.01-.268-.03-.374-.993.038-2.186.634-2.891 1.44-.567.615-1.084 1.594-1.084 2.573 0 .154.03.298.04.346.06.01.16.029.268.029.885 0 1.998-.576 2.664-1.354zm.696 1.555c-1.481 0-2.694.874-3.469.874-.825 0-1.898-.816-3.19-.816C6.484 6.647 4 8.605 4 12.292c0 2.304.914 4.733 2.057 6.298C7.031 19.915 7.886 21 9.118 21c1.212 0 1.75-.778 3.26-.778 1.53 0 1.878.759 3.22.759 1.331 0 2.216-1.181 3.06-2.343.934-1.334 1.332-2.63 1.342-2.698-.08-.019-2.624-1.027-2.624-3.84 0-2.439 1.998-3.533 2.117-3.62-1.322-1.833-3.339-1.89-3.895-1.89z"></path> </svg>