<svg
                xmlns="http://www.w3.org/2000/svg"
                width="16"
                height="16"
                fill="none"
                class="fill-soft"
                aria-hidden="true"
              >
                <g clip-path="url(#sun_svg__a)">
                  <path
                    fill="#676B89"
                    fill-rule="evenodd"
                    d="M8 .25a.75.75 0 0 1 .75.75v1.298a5.721 5.721 0 0 1 2.751 1.14l.918-.918a.75.75 0 0 1 1.061 1.06l-.918.919a5.722 5.722 0 0 1 1.14 2.751H15a.75.75 0 0 1 0 1.5h-1.299a5.721 5.721 0 0 1-1.14 2.751l.92.918a.75.75 0 0 1-1.062 1.061l-.918-.918a5.721 5.721 0 0 1-2.751 1.14V15a.75.75 0 0 1-1.5 0v-1.299a5.722 5.722 0 0 1-2.751-1.14l-.918.92a.75.75 0 1 1-1.061-1.062l.918-.918a5.721 5.721 0 0 1-1.14-2.751H1a.75.75 0 0 1 0-1.5h1.298a5.721 5.721 0 0 1 1.14-2.751l-.918-.918A.75.75 0 0 1 3.58 2.52l.919.918a5.721 5.721 0 0 1 2.751-1.14V1A.75.75 0 0 1 8 .25zM3.75 8a4.25 4.25 0 1 0 8.5 0 4.25 4.25 0 0 0-8.5 0z"
                    clip-rule="evenodd"
                  ></path>
                </g>
                <defs>
                  <clipPath id="sun_svg__a">
                    <path fill="#fff" d="M0 0h16v16H0z"></path>
                  </clipPath>
                </defs>
              </svg>