<svg xmlns="http://www.w3.org/2000/svg" fill="#20294C" viewBox="0 0 32 32" className="w-5 h-5" > <path d="M18.773 3.29C17.889 3.1 16.972 3 16.03 3 10.106 3 5.11 6.961 3.542 12.378c-.78 2.693-.6 5.464.265 8.055l.004.014.005.013c1.82 4.982 6.6 8.54 12.214 8.54 3.148 0 6.034-1.119 8.284-2.98a7.104 7.104 0 0 1-1.916-.147c-1.703-.354-3.004-1.163-3.92-2.287-.905-1.11-1.388-2.472-1.567-3.874-.357-2.779.45-5.9 1.828-8.165.241-.404.484-.792.72-1.17.634-1.015 1.219-1.95 1.59-2.88.48-1.208.471-2.097-.179-2.89-.513-.626-1.242-1.05-2.098-1.317z"></path> <path d="m28.314 20.274.005-.017.013-.04.002-.006c.452-1.32.697-2.737.697-4.211a12.96 12.96 0 0 0-3.57-8.95 13.066 13.066 0 0 0-2.131-1.81c.185 1.023-.036 2.053-.413 3-.444 1.114-1.174 2.281-1.838 3.343-.217.346-.426.68-.616.999l-.004.006c-.043.07-.085.143-.127.215.207.255.393.516.557.807.378.671.659 1.545.659 2.89 0 1.284-.363 2.189-.9 2.924-.382.523-.863.977-1.419 1.425a4.89 4.89 0 0 0 .809 1.468c.605.742 1.49 1.322 2.77 1.588 2.107.438 3.423-.425 4.276-1.436a6.305 6.305 0 0 0 1.22-2.197l.01.002z"></path> </svg>