<svg
                xmlns="http://www.w3.org/2000/svg"
                width="24"
                height="24"
                fill="#20294C"
                class="w-4 h-4"
              >
                <path
                  fill-rule="evenodd"
                  d="M22.8 12c0 5.965-4.835 10.8-10.8 10.8-5.965 0-10.8-4.835-10.8-10.8C1.2 6.035 6.035 1.2 12 1.2c5.965 0 10.8 4.835 10.8 10.8zM8.702 16.014c0 .494-.283.786-.754.786-.47 0-.748-.293-.748-.787V8.267c0-.663.406-1.066 1.07-1.066.574 0 .903.247 1.148.871l2.56 6.318h.051l2.553-6.318c.245-.618.58-.871 1.16-.871.665 0 1.058.396 1.058 1.066v7.748c0 .494-.277.786-.748.786-.47 0-.748-.293-.748-.787v-5.98h-.045l-2.47 6.033c-.16.39-.399.565-.786.565-.38 0-.632-.175-.786-.559l-2.47-6.038h-.045v5.98z"
                  clip-rule="evenodd"
                ></path>
              </svg>