<svg fill="none" height="20" viewBox="0 0 20 20" width="20" xmlns="http://www.w3.org/2000/svg"><g fill="#20294c"><path d="m11 4c0 .55228-.4477 1-1 1-.55228 0-1-.44772-1-1s.44772-1 1-1c.5523 0 1 .44772 1 1z"/><path d="m10 5c-1.65685 0-3 1.34315-3 3h-1c-.55228 0-1 .44772-1 1s.44771 1 1 1h3v8h2v-8h3c.5523 0 1-.44771 1-1 0-.55228-.4477-1-1-1h-1c0-1.65685-1.3431-3-3-3z"/><path d="m1.85858 4.01006c-.54673.0781-.926629.58463-.84852 1.13137l.98284 6.87997-.48791 4.8791c-.05496.5496.34599 1.0396.89553 1.0946.54954.0549 1.03959-.346 1.09454-.8956l.30995-3.0995h2.195v3c0 .5523.44772 1 1 1 .55229 0 1-.4477 1-1v-3c0-1.1046-.89543-2-2-2h-1.99988l-.00011-.0136c-.00063-.0511-.00516-.1014-.01333-.1507l-.99674-6.97712c-.0781-.54673-.58463-.92663-1.13137-.84852z"/><path d="m18.1414 4.01006c.5468.0781.9267.58463.8486 1.13137l-.9829 6.87997.4879 4.8791c.055.5496-.346 1.0396-.8955 1.0946-.5496.0549-1.0396-.346-1.0946-.8956l-.3099-3.0995h-2.195v3c0 .5523-.4477 1-1 1s-1-.4477-1-1v-3c0-1.1046.8954-2 2-2h1.9999l.0001-.0135c.0006-.0511.0051-.1015.0133-.1508l.9968-6.97712c.0781-.54673.5846-.92663 1.1313-.84852z"/></g></svg>