<svg
              xmlns="http://www.w3.org/2000/svg"
              fill="#20294C"
              viewBox="0 0 32 32"
              width="32"
              height="32"
            >
              <path
                fill-rule="evenodd"
                d="M26 26.57h2a1.6 1.6 0 1 1 0 3.2H4a1.6 1.6 0 0 1 0-3.2h2V15.555a5.008 5.008 0 0 0 3.68-.962l1.344-1.019a.711.711 0 0 1 .839 0l1.146.87a5.022 5.022 0 0 0 6.03 0l1.147-.87a.711.711 0 0 1 .839 0l1.344 1.02a5.006 5.006 0 0 0 3.63.967V26.57zm-14.4 0H14V22.4a2 2 0 1 1 4 0v4.17h2.4V22.4a4.4 4.4 0 1 0-8.8 0v4.17z"
                clip-rule="evenodd"
              ></path>
              <path d="M4.54 5.088c.06-.16.126-.319.227-.46C5.394 3.746 6.514 3.2 7.731 3.2H9.6v8.744l-.297.203c-1.18.81-2.836.872-4.094.153l-.545-.312c-2.371-1.357-1.346-3.873-.499-5.951.134-.33.264-.648.375-.95zM12 10.976V3.2h8v7.776a1.873 1.873 0 0 0-.745.297l-1.086.746c-1.268.87-3.07.87-4.338 0l-1.086-.746a1.873 1.873 0 0 0-.745-.297zm10.4.968.297.203c1.18.81 2.836.872 4.094.153l.545-.312c2.371-1.357 1.346-3.873.499-5.951-.134-.33-.264-.648-.375-.95a1.938 1.938 0 0 0-.227-.46c-.627-.88-1.747-1.427-2.964-1.427h-1.87v8.744z"></path>
            </svg>