<svg
                xmlns="http://www.w3.org/2000/svg"
                width="24"
                height="24"
                fill="#20294C"
              >
                <path d="M11.4 8.4a.6.6 0 1 1 1.2 0 .6.6 0 0 1-1.2 0z"></path>
                <path
                  fill-rule="evenodd"
                  d="m10.727 5.721-2.4 2.4A1.8 1.8 0 0 0 7.8 9.394V16.8a1.8 1.8 0 0 0 1.8 1.8h4.8a1.8 1.8 0 0 0 1.8-1.8V9.394a1.8 1.8 0 0 0-.527-1.273l-2.4-2.4a1.8 1.8 0 0 0-2.546 0zM12 6.6a1.8 1.8 0 1 0 0 3.6 1.8 1.8 0 0 0 0-3.6z"
                  clip-rule="evenodd"
                ></path>
                <path
                  fill-rule="evenodd"
                  d="M22.8 12c0 5.965-4.835 10.8-10.8 10.8-5.965 0-10.8-4.835-10.8-10.8C1.2 6.035 6.035 1.2 12 1.2c5.965 0 10.8 4.835 10.8 10.8zM9.879 4.873a3 3 0 0 1 4.242 0l2.4 2.4a3 3 0 0 1 .879 2.121V16.8a3 3 0 0 1-3 3H9.6a3 3 0 0 1-3-3V9.394a3 3 0 0 1 .879-2.121l2.4-2.4z"
                  clip-rule="evenodd"
                ></path>
              </svg>