<svg fill="none" height="20" viewBox="0 0 20 20" width="20" xmlns="http://www.w3.org/2000/svg"><g fill="#20294c"><path clip-rule="evenodd" d="m7 1.5c0-.27614.22386-.5.5-.5h5c.2761 0 .5.22386.5.5v1.5h.3058c1.4665 0 2.718 1.06024 2.9591 2.5068l.5832 3.49888c-1.0336.07763-1.8481.94086-1.8481 1.99432 0 1.1046.8954 2 2 2 .3643 0 .7058-.0974 1-.2676v1.2676c.5523 0 1 .4477 1 1s-.4477 1-1 1h-1v1c0 .5523-.4477 1-1 1s-1-.4477-1-1v-2c0-1.1046-.8954-2-2-2h-6c-1.10457 0-2 .8954-2 2v2c0 .5523-.44772 1-1 1s-1-.4477-1-1v-1h-1c-.55228 0-1-.4477-1-1s.44772-1 1-1v-1.2676c.29417.1702.63571.2676 1 .2676 1.10457 0 2-.8954 2-2 0-1.05345-.81447-1.91668-1.84806-1.99432l.58314-3.49888c.2411-1.44656 1.49267-2.5068 2.95918-2.5068h.30574zm-.30574 3.5c-.48884 0-.90603.35341-.98639.8356l-.5274 3.1644h9.63903l-.5273-3.1644c-.0804-.48219-.4976-.8356-.9864-.8356z" fill-rule="evenodd"/><path d="m14 16h-8v-1c0-.5523.44772-1 1-1h6c.5523 0 1 .4477 1 1z"/><path d="m18 11c0 .5523-.4477 1-1 1s-1-.4477-1-1 .4477-1 1-1 1 .4477 1 1z"/><path d="m4 11c0 .5523-.44772 1-1 1s-1-.4477-1-1 .44772-1 1-1 1 .4477 1 1z"/></g></svg>