<svg xmlns="http://www.w3.org/2000/svg" width="24" height="24" fill="#0A2D67" className="w-4 fill-action-sec" > <path fillRule="evenodd" d="M12 2.75a9.25 9.25 0 0 0-6.803 15.517c1.51-1.753 4.026-2.85 6.803-2.85 2.775 0 5.294 1.096 6.803 2.85A9.25 9.25 0 0 0 12 2.75zm5.7 16.536c-1.176-1.391-3.254-2.37-5.7-2.37-2.444 0-4.524.979-5.7 2.37A9.21 9.21 0 0 0 12 21.25a9.21 9.21 0 0 0 5.7-1.964zM1.25 12C1.25 6.063 6.063 1.25 12 1.25S22.75 6.063 22.75 12 17.937 22.75 12 22.75 1.25 17.937 1.25 12zM12 7.75a2.583 2.583 0 1 0 0 5.167 2.583 2.583 0 0 0 0-5.167zm-4.083 2.583a4.083 4.083 0 1 1 8.166 0 4.083 4.083 0 0 1-8.166 0z" clipRule="evenodd" ></path> </svg>