<svg
                xmlns="http://www.w3.org/2000/svg"
                width="24"
                height="24"
                fill="#20294C"
                class="w-4 h-4"
              >
                <path
                  fill-rule="evenodd"
                  d="M22.864 12.034c0 5.981-4.849 10.83-10.83 10.83-5.982 0-10.83-4.849-10.83-10.83 0-5.982 4.848-10.83 10.83-10.83 5.981 0 10.83 4.848 10.83 10.83zm-9.627 4.536c0 .6-.331.945-.902.945-.565 0-.903-.346-.903-.945V8.757h-3.38c-.493 0-.832-.296-.832-.768 0-.473.332-.769.832-.769h8.873c.5 0 .832.296.832.769 0 .472-.339.768-.832.768h-3.688v7.813z"
                  clip-rule="evenodd"
                ></path>
              </svg>