 <svg
              xmlns="http://www.w3.org/2000/svg"
              width="30"
              height="30"
              fill="none"
            >
              <path
                fill="#20294C"
                d="M22.7 10.314c-.292.282-.618.82-.875 1.556.085.163.163.347.232.556.74 2.223.489 5.035-.162 6.896.037.098.076.193.116.285.222.505.464.861.69 1.079.22.214.378.251.466.251.09 0 .246-.037.468-.251.225-.218.467-.574.689-1.08.441-1.008.735-2.46.735-4.106 0-1.647-.294-3.098-.735-4.107-.222-.505-.464-.861-.69-1.079-.22-.214-.378-.251-.466-.251-.09 0-.246.037-.468.251z"
              ></path>
              <path
                fill="#20294C"
                fill-rule="evenodd"
                d="M16.8 15.375c0-3.919.711-7.423 1.825-9.913.558-1.247 1.197-2.199 1.86-2.826.836-.79 2.155-.84 3.096-.174C26.151 4.282 28 9.375 28 15.375 28 22.9 25.09 29 21.5 29c-3.052 0-6.254-.59-9.391-1.167-1.537-.283-3.057-.563-4.538-.77C4.421 26.246 2 21.324 2 15.376c0-5.95 2.421-10.87 5.571-11.69l6.5-1.027c.802-.098 1.62-.231 2.443-.365.74-.12 1.278.752.925 1.399-.182.331-.353.68-.515 1.042-1.24 2.77-1.982 6.532-1.982 10.64 0 .502.416.909.928.909a.919.919 0 0 0 .93-.908zm9.343 0c0 3.511-1.247 6.358-2.786 6.358-1.538 0-2.786-2.847-2.786-6.358 0-3.512 1.248-6.359 2.786-6.359 1.539 0 2.786 2.847 2.786 6.359z"
                clip-rule="evenodd"
              ></path>
            </svg>