<svg
                xmlns="http://www.w3.org/2000/svg"
                width="24"
                height="24"
                fill="#20294C"
                class="w-4 h-4"
              >
                <path
                  fill-rule="evenodd"
                  d="M22.8 12c0 5.965-4.835 10.8-10.8 10.8-5.965 0-10.8-4.835-10.8-10.8C1.2 6.035 6.035 1.2 12 1.2c5.965 0 10.8 4.835 10.8 10.8zm-12.603 3.968c-.16.585-.464.832-1.001.832-.53 0-.823-.253-.988-.839L6.086 8.487A1.953 1.953 0 0 1 6 7.954c0-.462.331-.754.842-.754.444 0 .723.24.829.702l1.597 6.513h.054l1.756-6.422c.146-.559.425-.793.929-.793.484 0 .769.247.915.773l1.756 6.442h.053l1.598-6.513c.106-.468.385-.702.829-.702.51 0 .842.292.842.754 0 .143-.026.318-.086.533l-2.128 7.481c-.16.579-.451.832-.975.832-.55 0-.842-.24-1.008-.832l-1.77-6.064h-.066l-1.77 6.064z"
                  clip-rule="evenodd"
                ></path>
              </svg>